<svg width="140" height="140" viewBox="0 0 140 140" fill="none" xmlns="http://www.w3.org/2000/svg">
<path fill-rule="evenodd" clip-rule="evenodd" d="M70 138C107.555 138 138 107.555 138 70C138 32.4446 107.555 2 70 2C32.4446 2 2 32.4446 2 70C2 107.555 32.4446 138 70 138ZM70 140C108.66 140 140 108.66 140 70C140 31.3401 108.66 0 70 0C31.3401 0 0 31.3401 0 70C0 108.66 31.3401 140 70 140Z" fill="url(#paint0_linear_310_672)"/>
<path d="M42.556 53.3507C44.068 53.3507 45.328 53.7227 46.336 54.4667C47.344 55.2107 48.01 56.2247 48.334 57.5087H46.174C45.898 56.8247 45.442 56.2787 44.806 55.8707C44.182 55.4627 43.438 55.2587 42.574 55.2587C41.782 55.2587 41.068 55.4447 40.432 55.8167C39.808 56.1887 39.316 56.7167 38.956 57.4007C38.608 58.0847 38.434 58.8887 38.434 59.8127C38.434 60.7847 38.614 61.6187 38.974 62.3147C39.334 63.0107 39.838 63.5447 40.486 63.9167C41.146 64.2767 41.908 64.4567 42.772 64.4567C43.828 64.4567 44.734 64.1327 45.49 63.4847C46.246 62.8247 46.702 61.9247 46.858 60.7847H42.196V59.2727H48.586V61.2347C48.442 62.1707 48.106 63.0227 47.578 63.7907C47.062 64.5467 46.372 65.1527 45.508 65.6087C44.656 66.0647 43.678 66.2927 42.574 66.2927C41.338 66.2927 40.246 66.0167 39.298 65.4647C38.35 64.9127 37.618 64.1507 37.102 63.1787C36.586 62.1947 36.328 61.0727 36.328 59.8127C36.328 58.5527 36.586 57.4367 37.102 56.4647C37.618 55.4807 38.344 54.7187 39.28 54.1787C40.228 53.6267 41.32 53.3507 42.556 53.3507ZM59.8799 60.7307C59.8799 61.0667 59.8559 61.3607 59.8079 61.6127H52.1759C52.2119 62.6327 52.4939 63.3887 53.0219 63.8807C53.5499 64.3727 54.2039 64.6187 54.9839 64.6187C55.6679 64.6187 56.2439 64.4447 56.7119 64.0967C57.1919 63.7487 57.4859 63.2867 57.5939 62.7107H59.7899C59.6579 63.4067 59.3819 64.0247 58.9619 64.5647C58.5419 65.1047 57.9959 65.5307 57.3239 65.8427C56.6519 66.1427 55.9019 66.2927 55.0739 66.2927C54.1139 66.2927 53.2619 66.0887 52.5179 65.6807C51.7859 65.2727 51.2099 64.6847 50.7899 63.9167C50.3699 63.1487 50.1599 62.2427 50.1599 61.1987C50.1599 60.1667 50.3699 59.2667 50.7899 58.4987C51.2099 57.7307 51.7859 57.1427 52.5179 56.7347C53.2619 56.3267 54.1139 56.1227 55.0739 56.1227C56.0459 56.1227 56.8919 56.3267 57.6119 56.7347C58.3439 57.1307 58.9019 57.6827 59.2859 58.3907C59.6819 59.0867 59.8799 59.8667 59.8799 60.7307ZM57.8099 60.6767C57.8339 60.0287 57.7199 59.4887 57.4679 59.0567C57.2279 58.6127 56.8919 58.2887 56.4599 58.0847C56.0399 57.8687 55.5779 57.7607 55.0739 57.7607C54.2699 57.7607 53.5979 58.0067 53.0579 58.4987C52.5179 58.9907 52.2239 59.7167 52.1759 60.6767H57.8099ZM66.8471 64.3847V66.1667H65.5871C64.5311 66.1667 63.7271 65.9147 63.1751 65.4107C62.6351 64.8947 62.3651 64.0427 62.3651 62.8547V57.9947H60.9431V56.2487H62.3651V53.7827H64.4351V56.2487H66.8291V57.9947H64.4351V62.8907C64.4351 63.4547 64.5371 63.8447 64.7411 64.0607C64.9571 64.2767 65.3291 64.3847 65.8571 64.3847H66.8471ZM45.094 85.7827C45.094 86.4067 44.944 86.9887 44.644 87.5287C44.344 88.0567 43.888 88.4827 43.276 88.8067C42.664 89.1307 41.914 89.2927 41.026 89.2927C40.162 89.2927 39.388 89.1427 38.704 88.8427C38.02 88.5307 37.474 88.0987 37.066 87.5467C36.658 86.9947 36.424 86.3587 36.364 85.6387H38.56C38.62 86.1907 38.854 86.6647 39.262 87.0607C39.682 87.4567 40.24 87.6547 40.936 87.6547C41.56 87.6547 42.04 87.4867 42.376 87.1507C42.724 86.8147 42.898 86.3827 42.898 85.8547C42.898 85.3987 42.772 85.0267 42.52 84.7387C42.268 84.4387 41.956 84.2047 41.584 84.0367C41.212 83.8687 40.702 83.6767 40.054 83.4607C39.262 83.2087 38.614 82.9567 38.11 82.7047C37.618 82.4527 37.198 82.0867 36.85 81.6067C36.502 81.1267 36.328 80.4967 36.328 79.7167C36.328 79.0327 36.496 78.4327 36.832 77.9167C37.168 77.4007 37.648 77.0047 38.272 76.7287C38.896 76.4407 39.616 76.2967 40.432 76.2967C41.728 76.2967 42.754 76.6087 43.51 77.2327C44.278 77.8567 44.716 78.6727 44.824 79.6807H42.61C42.526 79.2007 42.298 78.7927 41.926 78.4567C41.566 78.1087 41.068 77.9347 40.432 77.9347C39.856 77.9347 39.394 78.0847 39.046 78.3847C38.698 78.6727 38.524 79.0927 38.524 79.6447C38.524 80.0767 38.644 80.4367 38.884 80.7247C39.124 81.0007 39.424 81.2227 39.784 81.3907C40.156 81.5467 40.66 81.7327 41.296 81.9487C42.1 82.2007 42.754 82.4587 43.258 82.7227C43.774 82.9747 44.206 83.3467 44.554 83.8387C44.914 84.3307 45.094 84.9787 45.094 85.7827ZM52.1343 87.3847V89.1667H50.8743C49.8183 89.1667 49.0143 88.9147 48.4623 88.4107C47.9223 87.8947 47.6523 87.0427 47.6523 85.8547V80.9947H46.2303V79.2487H47.6523V76.7827H49.7223V79.2487H52.1163V80.9947H49.7223V85.8907C49.7223 86.4547 49.8243 86.8447 50.0283 87.0607C50.2443 87.2767 50.6163 87.3847 51.1443 87.3847H52.1343ZM58.0345 79.1227C58.9345 79.1227 59.7025 79.3447 60.3385 79.7887C60.9745 80.2327 61.4245 80.8207 61.6885 81.5527V79.2487H63.7405V89.1667H61.6885V86.8627C61.4245 87.5947 60.9745 88.1827 60.3385 88.6267C59.7025 89.0707 58.9345 89.2927 58.0345 89.2927C57.1705 89.2927 56.3965 89.0887 55.7125 88.6807C55.0405 88.2727 54.5125 87.6847 54.1285 86.9167C53.7445 86.1487 53.5525 85.2427 53.5525 84.1987C53.5525 83.1667 53.7445 82.2667 54.1285 81.4987C54.5125 80.7307 55.0405 80.1427 55.7125 79.7347C56.3965 79.3267 57.1705 79.1227 58.0345 79.1227ZM58.6645 80.9227C57.7525 80.9227 57.0205 81.2167 56.4685 81.8047C55.9285 82.3807 55.6585 83.1787 55.6585 84.1987C55.6585 85.2187 55.9285 86.0227 56.4685 86.6107C57.0205 87.1867 57.7525 87.4747 58.6645 87.4747C59.2405 87.4747 59.7565 87.3427 60.2125 87.0787C60.6685 86.8027 61.0285 86.4187 61.2925 85.9267C61.5565 85.4347 61.6885 84.8587 61.6885 84.1987C61.6885 83.5507 61.5565 82.9807 61.2925 82.4887C61.0285 81.9847 60.6685 81.6007 60.2125 81.3367C59.7565 81.0607 59.2405 80.9227 58.6645 80.9227ZM68.2549 81.1927C68.5909 80.5447 69.0709 80.0347 69.6949 79.6627C70.3189 79.2787 71.0389 79.0867 71.8549 79.0867V81.3187H71.2429C70.3429 81.3187 69.6169 81.5407 69.0649 81.9847C68.5249 82.4167 68.2549 83.1367 68.2549 84.1447V89.1667H66.2029V79.2487H68.2549V81.1927ZM78.3784 87.3847V89.1667H77.1184C76.0624 89.1667 75.2584 88.9147 74.7064 88.4107C74.1664 87.8947 73.8964 87.0427 73.8964 85.8547V80.9947H72.4744V79.2487H73.8964V76.7827H75.9664V79.2487H78.3604V80.9947H75.9664V85.8907C75.9664 86.4547 76.0684 86.8447 76.2724 87.0607C76.4884 87.2767 76.8604 87.3847 77.3884 87.3847H78.3784ZM89.5166 83.7307C89.5166 84.0667 89.4926 84.3607 89.4446 84.6127H81.8126C81.8486 85.6327 82.1306 86.3887 82.6586 86.8807C83.1866 87.3727 83.8406 87.6187 84.6206 87.6187C85.3046 87.6187 85.8806 87.4447 86.3486 87.0967C86.8286 86.7487 87.1226 86.2867 87.2306 85.7107H89.4266C89.2946 86.4067 89.0186 87.0247 88.5986 87.5647C88.1786 88.1047 87.6326 88.5307 86.9606 88.8427C86.2886 89.1427 85.5386 89.2927 84.7106 89.2927C83.7506 89.2927 82.8986 89.0887 82.1546 88.6807C81.4226 88.2727 80.8466 87.6847 80.4266 86.9167C80.0066 86.1487 79.7966 85.2427 79.7966 84.1987C79.7966 83.1667 80.0066 82.2667 80.4266 81.4987C80.8466 80.7307 81.4226 80.1427 82.1546 79.7347C82.8986 79.3267 83.7506 79.1227 84.7106 79.1227C85.6826 79.1227 86.5286 79.3267 87.2486 79.7347C87.9806 80.1307 88.5386 80.6827 88.9226 81.3907C89.3186 82.0867 89.5166 82.8667 89.5166 83.7307ZM87.4466 83.6767C87.4706 83.0287 87.3566 82.4887 87.1046 82.0567C86.8646 81.6127 86.5286 81.2887 86.0966 81.0847C85.6766 80.8687 85.2146 80.7607 84.7106 80.7607C83.9066 80.7607 83.2346 81.0067 82.6946 81.4987C82.1546 81.9907 81.8606 82.7167 81.8126 83.6767H87.4466ZM95.4759 79.1227C96.3759 79.1227 97.1439 79.3447 97.7799 79.7887C98.4159 80.2327 98.8599 80.8207 99.1119 81.5527V75.8467H101.182V89.1667H99.1119V86.8627C98.8599 87.5947 98.4159 88.1827 97.7799 88.6267C97.1439 89.0707 96.3759 89.2927 95.4759 89.2927C94.6119 89.2927 93.8379 89.0887 93.1539 88.6807C92.4819 88.2727 91.9539 87.6847 91.5699 86.9167C91.1859 86.1487 90.9939 85.2427 90.9939 84.1987C90.9939 83.1667 91.1859 82.2667 91.5699 81.4987C91.9539 80.7307 92.4819 80.1427 93.1539 79.7347C93.8379 79.3267 94.6119 79.1227 95.4759 79.1227ZM96.1059 80.9227C95.1939 80.9227 94.4619 81.2167 93.9099 81.8047C93.3699 82.3807 93.0999 83.1787 93.0999 84.1987C93.0999 85.2187 93.3699 86.0227 93.9099 86.6107C94.4619 87.1867 95.1939 87.4747 96.1059 87.4747C96.6819 87.4747 97.1979 87.3427 97.6539 87.0787C98.1099 86.8027 98.4699 86.4187 98.7339 85.9267C98.9979 85.4347 99.1299 84.8587 99.1299 84.1987C99.1299 83.5507 98.9979 82.9807 98.7339 82.4887C98.4699 81.9847 98.1099 81.6007 97.6539 81.3367C97.1979 81.0607 96.6819 80.9227 96.1059 80.9227Z" fill="url(#paint1_linear_310_672)"/>
<path d="M77.9898 65.2616C77.7559 64.9828 77.7697 64.5787 78.0079 64.3167L78.0784 64.249L89.0903 55.0089C89.3943 54.7538 89.8477 54.7934 90.1029 55.0975C90.3368 55.3762 90.3229 55.7804 90.0848 56.0424L90.0143 56.1101L79.0024 65.3502C78.6983 65.6053 78.2449 65.5657 77.9898 65.2616Z" fill="white"/>
<path d="M81.3388 55.5797C80.9433 55.5459 80.65 55.198 80.6838 54.8024C80.7144 54.4429 81.0048 54.1678 81.3545 54.1461L81.461 54.1474L89.6133 54.8429C89.9739 54.8737 90.2493 55.1657 90.2698 55.5164L90.2681 55.6232L89.538 63.7731C89.5026 64.1685 89.1534 64.4603 88.758 64.4249C88.3986 64.3927 88.1248 64.1012 88.1045 63.7514L88.1063 63.6449L88.7715 56.2138L81.3388 55.5797Z" fill="white"/>
<defs>
<linearGradient id="paint0_linear_310_672" x1="93.5405" y1="-125.781" x2="186.413" y2="101.942" gradientUnits="userSpaceOnUse">
<stop offset="0.00887753" stop-color="#DEF9FA"/>
<stop offset="0.1723" stop-color="#BEF3F5"/>
<stop offset="0.4204" stop-color="#9DEDF0"/>
<stop offset="0.5512" stop-color="#7DE7EB"/>
<stop offset="0.7154" stop-color="#5CE1E6"/>
<stop offset="1" stop-color="#33BBCF"/>
</linearGradient>
<linearGradient id="paint1_linear_310_672" x1="91.6243" y1="-0.0494849" x2="116.466" y2="95.291" gradientUnits="userSpaceOnUse">
<stop offset="0.00887753" stop-color="#DEF9FA"/>
<stop offset="0.1723" stop-color="#BEF3F5"/>
<stop offset="0.4204" stop-color="#9DEDF0"/>
<stop offset="0.5512" stop-color="#7DE7EB"/>
<stop offset="0.7154" stop-color="#5CE1E6"/>
<stop offset="1" stop-color="#33BBCF"/>
</linearGradient>
</defs>
</svg>
